<?xml version="1.0" encoding="UTF-8"?>
<svg width="32px" height="32px" viewBox="0 0 32 32" version="1.1" xmlns="http://www.w3.org/2000/svg" xmlns:xlink="http://www.w3.org/1999/xlink">
    <!-- Generator: Sketch 42 (36781) - http://www.bohemiancoding.com/sketch -->
    <title>icon</title>
    <desc>Created with Sketch.</desc>
    <defs></defs>
    <g id="Page-1" stroke="none" stroke-width="1" fill="none" fill-rule="evenodd">
        <rect id="Rectangle-1" x="-60" y="5" width="88" height="22"></rect>
        <g id="Group" opacity="0.748867754" transform="translate(-16.000000, 16.000000) rotate(-270.000000) translate(16.000000, -16.000000) translate(-28.000000, -28.000000)" fill="#FFFFFF">
            <path d="M2.967,86 L2.967,82.268 L4.833,82.268 L4.833,80.268 L2.967,80.268 L2.967,76.534 L4.833,76.534 L4.833,74.534 L2.967,74.534 L2.967,70.802 L7.7,70.802 L7.7,68.802 L2.967,68.802 L2.967,65.068 L4.833,65.068 L4.833,63.068 L2.967,63.068 L2.967,59.336 L4.833,59.336 L4.833,57.336 L2.967,57.336 L2.967,53.604 L7.7,53.604 L7.7,51.604 L2.967,51.604 L2.967,47.87 L4.833,47.87 L4.833,45.87 L2.967,45.87 L2.967,42.137 L4.833,42.137 L4.833,40.137 L2.967,40.137 L2.967,36.4 L8.60546874,36.4000015 L8.60546874,34.4000015 L2.967,34.4 L2.967,30.667 L8.60546874,30.6669998 L8.60546874,28.6669998 C8.60546874,28.6669998 6.23209633,28.6669999 5.78076169,28.6669999 C4.84284113,28.6669999 2.967,28.667 2.967,28.667 L2.967,24.934 L11.7543459,24.934 L11.7543459,22.934 L2.967,22.934 L2.967,19.201 L8.60546874,19.2010002 L8.60546874,17.2010002 L2.967,17.201 L2.967,13.467 L8.60546874,13.467 L8.60546874,11.467 L2.967,11.467 L2.967,7.734 L8.60546874,7.73400021 L8.60546874,5.73399997 L2.967,5.734 L2.967,2 L21.033,2 L21.033,86 L2.967,86 Z M0.967,88 L23.033,88 L23.033,-2.84217094e-14 L0.967,-2.84217094e-14 L0.967,88 Z" id="Shape"></path>
        </g>
    </g>
</svg>