<?xml version="1.0" encoding="UTF-8"?>
<svg width="43px" height="43px" viewBox="0 0 43 43" version="1.1" xmlns="http://www.w3.org/2000/svg" xmlns:xlink="http://www.w3.org/1999/xlink">
    <!-- Generator: Sketch 42 (36781) - http://www.bohemiancoding.com/sketch -->
    <title>icon</title>
    <desc>Created with Sketch.</desc>
    <defs>
        <linearGradient x1="50%" y1="2.81608737%" x2="50%" y2="100%" id="linearGradient-1">
            <stop stop-color="#F5E08D" offset="0%"></stop>
            <stop stop-color="#D6B832" offset="100%"></stop>
        </linearGradient>
    </defs>
    <g id="Page-1" stroke="none" stroke-width="1" fill="none" fill-rule="evenodd">
        <rect id="Rectangle-1" fill="url(#linearGradient-1)" x="-50" y="13" width="88" height="22"></rect>
        <g id="Group" transform="translate(-6.000000, 24.000000) rotate(-270.000000) translate(6.000000, -24.000000) translate(-17.000000, -20.000000)" fill="#000000">
            <path d="M1.967,86 L1.967,82.268 L3.833,82.268 L3.833,80.268 L1.967,80.268 L1.967,76.534 L3.833,76.534 L3.833,74.534 L1.967,74.534 L1.967,70.802 L6.7,70.802 L6.7,68.802 L1.967,68.802 L1.967,65.068 L3.833,65.068 L3.833,63.068 L1.967,63.068 L1.967,59.336 L3.833,59.336 L3.833,57.336 L1.967,57.336 L1.967,53.604 L6.7,53.604 L6.7,51.604 L1.967,51.604 L1.967,47.87 L3.833,47.87 L3.833,45.87 L1.967,45.87 L1.967,42.137 L3.833,42.137 L3.833,40.137 L1.967,40.137 L1.967,36.4 L7.60546874,36.4000015 L7.60546874,34.4000015 L1.967,34.4 L1.967,30.667 L7.60546874,30.6669998 L7.60546874,28.6669998 C7.60546874,28.6669998 5.23209633,28.6669999 4.78076169,28.6669999 C3.84284113,28.6669999 1.967,28.667 1.967,28.667 L1.967,24.934 L10.7543459,24.934 L10.7543459,22.934 L1.967,22.934 L1.967,19.201 L7.60546874,19.2010002 L7.60546874,17.2010002 L1.967,17.201 L1.967,13.467 L7.60546874,13.467 L7.60546874,11.467 L1.967,11.467 L1.967,7.734 L7.60546874,7.73400021 L7.60546874,5.73399997 L1.967,5.734 L1.967,2 L20.033,2 L20.033,86 L1.967,86 Z M-0.033,88 L22.033,88 L22.033,0 L-0.033,0 L-0.033,88 Z" id="Shape"></path>
        </g>
    </g>
</svg>